HIERARCHY
ROOT Hips
{
	OFFSET 0.00000 0.00000 0.00000
	CHANNELS 6 Xposition Yposition Zposition Zrotation Yrotation Xrotation 
	JOINT LHipJoint
	{
		OFFSET 0 0 0
		CHANNELS 3 Zrotation Yrotation Xrotation
		JOINT LeftUpLeg
		{
			OFFSET 1.26600 -1.82114 0.91038
			CHANNELS 3 Zrotation Yrotation Xrotation
			JOINT LeftLeg
			{
				OFFSET 2.50076 -6.87080 0.00000
				CHANNELS 3 Zrotation Yrotation Xrotation
				JOINT LeftFoot
				{
					OFFSET 2.57364 -7.07102 0.00000
					CHANNELS 3 Zrotation Yrotation Xrotation
					JOINT LeftToeBase
					{
						OFFSET 0.13572 -0.37290 1.97004
						CHANNELS 3 Zrotation Yrotation Xrotation
						End Site
						{
							OFFSET 0.00000 -0.00000 1.01383
						}
					}
				}
			}
		}
	}
	JOINT RHipJoint
	{
		OFFSET 0 0 0
		CHANNELS 3 Zrotation Yrotation Xrotation
		JOINT RightUpLeg
		{
			OFFSET -1.20803 -1.82114 0.91038
			CHANNELS 3 Zrotation Yrotation Xrotation
			JOINT RightLeg
			{
				OFFSET -2.54916 -7.00377 0.00000
				CHANNELS 3 Zrotation Yrotation Xrotation
				JOINT RightFoot
				{
					OFFSET -2.56374 -7.04382 0.00000
					CHANNELS 3 Zrotation Yrotation Xrotation
					JOINT RightToeBase
					{
						OFFSET -0.23520 -0.64621 2.09921
						CHANNELS 3 Zrotation Yrotation Xrotation
						End Site
						{
							OFFSET -0.00000 -0.00000 1.10065
						}
					}
				}
			}
		}
	}
	JOINT LowerBack
	{
		OFFSET 0 0 0
		CHANNELS 3 Zrotation Yrotation Xrotation
		JOINT Spine
		{
			OFFSET 0.05492 2.10797 -0.12074
			CHANNELS 3 Zrotation Yrotation Xrotation
			JOINT Spine1
			{
				OFFSET 0.04577 2.11592 -0.04483
				CHANNELS 3 Zrotation Yrotation Xrotation
				JOINT Neck
				{
					OFFSET 0 0 0
					CHANNELS 3 Zrotation Yrotation Xrotation
					JOINT Neck1
					{
						OFFSET -0.10759 1.80167 0.15770
						CHANNELS 3 Zrotation Yrotation Xrotation
						JOINT Head
						{
							OFFSET 0.09237 1.77509 -0.40848
							CHANNELS 3 Zrotation Yrotation Xrotation
							End Site
							{
								OFFSET 0.03805 1.84093 -0.15754
							}
						}
					}
				}
				JOINT LeftShoulder
				{
					OFFSET 0 0 0
					CHANNELS 3 Zrotation Yrotation Xrotation
					JOINT LeftArm
					{
						OFFSET 3.42372 1.09575 -0.28209
						CHANNELS 3 Zrotation Yrotation Xrotation
						JOINT LeftForeArm
						{
							OFFSET 4.95681 -0.00000 0.00000
							CHANNELS 3 Zrotation Yrotation Xrotation
							JOINT LeftHand
							{
								OFFSET 3.40915 -0.00000 0.00000
								CHANNELS 3 Zrotation Yrotation Xrotation
								JOINT LeftFingerBase
								{
									OFFSET 0 0 0
									CHANNELS 3 Zrotation Yrotation Xrotation
									JOINT LeftHandIndex1
									{
										OFFSET 0.61640 -0.00000 0.00000
										CHANNELS 3 Zrotation Yrotation Xrotation
										End Site
										{
											OFFSET 0.49696 -0.00000 0.00000
										}
									}
								}
								JOINT LThumb
								{
									OFFSET 0 0 0
									CHANNELS 3 Zrotation Yrotation Xrotation
									End Site
									{
										OFFSET 0.50455 -0.00000 0.50455
									}
								}
							}
						}
					}
				}
				JOINT RightShoulder
				{
					OFFSET 0 0 0
					CHANNELS 3 Zrotation Yrotation Xrotation
					JOINT RightArm
					{
						OFFSET -3.24731 1.15872 -0.32221
						CHANNELS 3 Zrotation Yrotation Xrotation
						JOINT RightForeArm
						{
							OFFSET -5.35200 -0.00000 0.00000
							CHANNELS 3 Zrotation Yrotation Xrotation
							JOINT RightHand
							{
								OFFSET -3.43721 -0.00000 -0.00000
								CHANNELS 3 Zrotation Yrotation Xrotation
								JOINT RightFingerBase
								{
									OFFSET 0 0 0
									CHANNELS 3 Zrotation Yrotation Xrotation
									JOINT RightHandIndex1
									{
										OFFSET -0.72009 -0.00000 0.00000
										CHANNELS 3 Zrotation Yrotation Xrotation
										End Site
										{
											OFFSET -0.58056 -0.00000 0.00000
										}
									}
								}
								JOINT RThumb
								{
									OFFSET 0 0 0
									CHANNELS 3 Zrotation Yrotation Xrotation
									End Site
									{
										OFFSET -0.58942 -0.00000 0.58942
									}
								}
							}
						}
					}
				}
			}
		}
	}
}
MOTION
Frames: 11
Frame Time: .0083333
-2.3022 17.1924 -22.3741 0 0 0 0 0 0 -21 0 0 0 0 0 0 0 0 0 0 0 0 0 0 21 0 0 0 0 0 0 0 0 0 0 0 0 0 0 0 0 0 0 0 0 0 0 -16 0 0 21 0 0 11 0 0 0 -8 0 0 0 0 0 0 0 0 0 0 0 0 0 0 0 0 0 0 0 0 8 0 0 0 0 0 0 0 0 0 0 0 0 0 0 0 0 0
-2.3022 17.1924 -22.3741 -1.6981 -4.0710 1.1169 0.0000 0.0000 0.0000 -15.8244 -2.6918 -8.0705 2.4110 9.6742 27.9279 0.6374 -11.9143 -15.4178 0.0180 -0.8670 -2.3830 0.0000 0.0000 0.0000 25.6925 1.4471 -9.0875 -2.8212 -10.3998 30.2812 -1.3066 5.2224 -20.5198 -0.5408 -4.7118 13.0884 2.0098 -0.1568 2.3155 1.6659 -0.1006 -1.2633 0.5886 -0.0703 -2.5962 -13.7501 -11.8314 -3.7569 8.7993 -16.2387 14.1738 3.6219 -8.0789 6.7853 -0.0000 -0.0000 0.0000 -91.6754 4.4456 20.2216 11.5896 -19.1864 -1.9653 -0.0000 -0.0000 2.5542 18.8775 21.7822 7.2314 -7.1250 0.0000 -0.0000 -10.2195 52.5889 -1.9249 -0.0000 -0.0000 0.0000 89.1049 -1.7255 14.4600 -12.9449 21.2064 -2.4333 0.0000 -0.0000 -7.2425 -23.0614 11.5133 -4.8571 7.1250 -0.0000 -0.0000 2.8587 -17.5062 1.8687
-2.3057 17.1751 -22.3747 -1.9485 -3.8524 0.8972 0.0000 0.0000 0.0000 -15.5256 -2.7800 -7.9001 2.4305 9.7105 28.0443 0.6136 -12.0532 -15.2439 0.0090 -0.6111 -1.6793 0.0000 0.0000 0.0000 26.0261 1.1933 -8.9852 -2.8502 -10.4485 30.4415 -1.3273 4.9109 -20.7177 -0.4570 -4.3367 12.0259 2.2372 -0.2978 2.6580 1.8724 -0.2661 -1.1660 0.6827 -0.1552 -2.6902 -14.0894 -11.8292 -3.9719 8.8305 -16.1798 14.1687 3.6728 -8.0576 6.8458 0.0000 -0.0000 0.0000 -91.9194 4.1660 19.3218 11.5323 -19.0996 -1.9465 -0.0000 -0.0000 4.1948 17.3819 21.1136 6.4335 -7.1250 0.0000 -0.0000 -11.4432 51.6527 -1.8955 0.0000 -0.0000 0.0000 88.8389 -1.6632 14.4561 -12.8761 21.1054 -2.4085 0.0000 -0.0000 -7.0832 -22.6445 12.1128 -5.0028 7.1250 -0.0000 -0.0000 3.1759 -16.9016 2.1187
-2.3102 17.1708 -22.3787 -2.0854 -3.9508 0.9399 0.0000 0.0000 0.0000 -15.3687 -2.7796 -7.9523 2.4358 9.7203 28.0756 0.6312 -11.9507 -15.3723 0.0242 -1.0050 -2.7625 0.0000 0.0000 0.0000 26.1920 1.3379 -9.0077 -2.8619 -10.4681 30.5062 -1.3312 4.9228 -20.7478 -0.4781 -4.4344 12.3022 2.3784 -0.2706 2.7889 1.9214 -0.2175 -1.1964 0.6526 -0.1338 -2.7956 -14.0997 -11.9147 -4.0892 8.7273 -16.2766 14.3307 3.6190 -8.1069 6.9219 0.0000 0.0000 0.0000 -91.8733 4.1376 19.2602 11.6022 -19.2053 -1.9695 -0.0000 -0.0000 4.7549 16.9362 20.6229 6.1218 -7.1250 0.0000 -0.0000 -11.6931 51.0846 -1.7734 0.0000 0.0000 0.0000 88.7439 -1.6702 14.4992 -12.8875 21.1221 -2.4126 0.0000 -0.0000 -7.3569 -22.5123 11.9109 -4.8893 7.1250 -0.0000 -0.0000 3.2593 -17.1310 2.1582
-2.3122 17.1710 -22.3827 -2.0250 -4.1110 0.9712 0.0000 0.0000 0.0000 -15.4501 -2.7393 -7.9869 2.4399 9.7277 28.0995 0.6505 -11.7902 -15.4987 0.0279 -1.0787 -2.9654 0.0000 0.0000 0.0000 26.1091 1.4409 -9.0562 -2.8745 -10.4891 30.5755 -1.3274 5.0208 -20.7071 -0.4941 -4.5066 12.5065 2.3586 -0.2120 2.8080 1.8752 -0.1419 -1.1477 0.6120 -0.0957 -2.7556 -13.9935 -11.9446 -4.2138 8.6472 -16.3057 14.4390 3.5655 -8.1164 6.9656 -0.0000 0.0000 0.0000 -91.6918 3.9816 19.5567 11.6886 -19.3359 -1.9980 -0.0000 -0.0000 4.9948 16.6851 20.5350 6.0020 -7.1250 0.0000 -0.0000 -11.9042 50.9549 -1.7680 -0.0000 0.0000 0.0000 88.7626 -1.5313 14.1650 -12.8171 21.0186 -2.3873 0.0000 -0.0000 -7.2132 -22.7224 11.9297 -4.9475 7.1250 -0.0000 -0.0000 3.1136 -17.0905 2.0642
-2.3164 17.1772 -22.3887 -1.7884 -4.2762 0.9609 0.0000 0.0000 0.0000 -15.7041 -2.5463 -8.0642 2.4408 9.7295 28.1052 0.6505 -11.7759 -15.4943 0.0114 -0.6883 -1.8916 0.0000 0.0000 0.0000 25.8473 1.4718 -9.1036 -2.8795 -10.4975 30.6031 -1.3175 5.1029 -20.6192 -0.4675 -4.3856 12.1641 2.0981 -0.1487 2.8406 1.8204 -0.0717 -1.0169 0.6974 -0.0554 -2.6382 -13.7728 -11.9684 -4.4483 8.3939 -16.2814 14.4126 3.4440 -8.1018 6.9538 0.0000 -0.0000 0.0000 -91.5245 3.6793 20.0713 11.7432 -19.4184 -2.0161 -0.0000 -0.0000 4.7635 16.4324 20.7900 5.9762 -7.1250 0.0000 -0.0000 -12.2463 51.1689 -1.8850 0.0000 -0.0000 0.0000 88.7465 -1.0997 13.5598 -12.5780 20.6657 -2.3022 0.0000 -0.0000 -6.8310 -23.1799 11.9356 -5.0606 7.1250 -0.0000 -0.0000 2.7951 -17.0397 1.8556
-2.3184 17.1858 -22.3942 -1.5523 -4.5149 1.0419 0.0000 0.0000 0.0000 -15.9918 -2.3657 -8.2272 2.4361 9.7209 28.0774 0.6657 -11.7246 -15.6171 0.0013 -0.2308 -0.6343 0.0000 0.0000 0.0000 25.5607 1.4797 -9.3030 -2.8867 -10.5094 30.6425 -1.3085 5.2985 -20.5282 -0.4318 -4.2168 11.6873 1.8056 -0.4756 2.6588 2.2062 -0.5306 -0.5179 1.2749 -0.2736 -2.0180 -14.8188 -11.7150 -6.1067 8.4311 -15.6040 14.6662 3.5847 -7.7726 7.3350 0.0000 -0.0000 0.0000 -92.4560 2.6163 19.0944 11.7687 -19.4569 -2.0246 -0.0000 -0.0000 4.2747 16.7508 20.5929 6.0430 -7.1250 0.0000 -0.0000 -11.8622 51.0239 -1.7819 0.0000 -0.0000 0.0000 87.6822 0.1676 14.7003 -12.3832 20.3769 -2.2339 0.0000 -0.0000 -7.0006 -23.1723 11.8953 -5.0420 7.1250 -0.0000 -0.0000 2.7985 -17.0839 1.8551
-2.3209 17.1868 -22.3952 -1.4827 -4.6417 1.0217 0.0000 0.0000 0.0000 -16.0913 -2.2852 -8.1831 2.4261 9.7024 28.0182 0.6837 -11.7857 -15.7989 0.0007 0.1711 0.4701 0.0000 0.0000 0.0000 25.4843 1.4812 -9.3426 -2.8979 -10.5278 30.7035 -1.3104 5.3489 -20.5392 -0.4098 -4.1095 11.3848 1.6608 -0.5710 2.6522 2.3433 -0.6582 -0.5920 1.5033 -0.3351 -2.0860 -15.1146 -11.3959 -5.4492 8.4971 -15.2118 14.3255 3.7442 -7.6159 7.0932 0.0000 -0.0000 0.0000 -92.6856 2.9121 19.1682 11.9133 -19.6744 -2.0730 -0.0000 -0.0000 3.6115 16.9970 20.5092 6.1128 -7.1250 0.0000 -0.0000 -11.5918 50.9803 -1.7278 0.0000 -0.0000 0.0000 87.3263 -0.2688 15.4252 -12.5869 20.6789 -2.3053 0.0000 -0.0000 -7.2484 -23.2398 11.6827 -4.9696 7.1250 -0.0000 -0.0000 2.7416 -17.3066 1.8040
-2.3276 17.1878 -22.3951 -1.3061 -4.7741 0.9830 0.0000 0.0000 0.0000 -16.2676 -2.1496 -8.1325 2.4143 9.6803 27.9477 0.6859 -11.8493 -15.8385 0.0011 0.2176 0.5980 0.0000 0.0000 0.0000 25.3277 1.6975 -9.2674 -2.9119 -10.5511 30.7803 -1.3109 5.2799 -20.5497 -0.4296 -4.2063 11.6578 1.4020 -0.6232 2.7464 2.3684 -0.7322 -0.6330 1.6793 -0.3687 -2.1765 -15.0861 -11.2362 -5.1807 8.3986 -15.0013 14.0940 3.7553 -7.5276 6.9364 0.0000 -0.0000 0.0000 -92.7264 3.0914 19.2812 12.0761 -19.9187 -2.1281 -0.0000 -0.0000 3.0744 17.5334 20.6165 6.3478 -7.1250 0.0000 -0.0000 -11.1089 51.1771 -1.7083 0.0000 -0.0000 0.0000 87.2171 -0.4460 15.6703 -12.5894 20.6827 -2.3063 0.0000 -0.0000 -7.1897 -23.5771 11.5093 -4.9766 7.1250 -0.0000 -0.0000 2.4977 -17.4613 1.6347
-2.3329 17.1876 -22.3965 -1.1122 -4.9482 1.0259 0.0000 0.0000 0.0000 -16.4736 -2.1073 -8.1513 2.4064 9.6656 27.9006 0.6905 -11.6872 -15.8315 0.0000 0.0144 0.0396 0.0000 0.0000 0.0000 25.1195 1.8920 -9.3191 -2.9257 -10.5739 30.8558 -1.3077 5.3471 -20.5179 -0.4709 -4.4014 12.2088 1.1380 -0.6054 2.7730 2.3576 -0.7167 -0.6613 1.8162 -0.3576 -2.2176 -15.0114 -11.0906 -4.9374 8.4046 -14.8266 13.8220 3.7871 -7.4458 6.7802 0.0000 0.0000 0.0000 -92.7176 3.0096 19.2290 12.0997 -19.9541 -2.1362 -0.0000 -0.0000 2.9365 18.3663 20.4142 6.6056 -7.1250 0.0000 -0.0000 -10.2225 51.1109 -1.5527 0.0000 0.0000 0.0000 87.1332 -0.4411 15.7138 -12.4944 20.5419 -2.2728 0.0000 -0.0000 -7.1905 -23.6936 11.5168 -5.0072 7.1250 -0.0000 -0.0000 2.4166 -17.4420 1.5826
-2.3364 17.1849 -22.3988 -1.0931 -4.9980 1.0215 0.0000 0.0000 0.0000 -16.4994 -2.2047 -8.0798 2.4024 9.6583 27.8772 0.7027 -11.4919 -15.8849 0.0002 -0.0946 -0.2599 0.0000 0.0000 0.0000 25.0921 1.8728 -9.3632 -2.9359 -10.5905 30.9110 -1.3130 5.4890 -20.5492 -0.4969 -4.5195 12.5429 1.0935 -0.6213 2.7792 2.3756 -0.7376 -0.7181 1.8614 -0.3672 -2.2782 -14.9610 -10.9668 -4.4209 8.3268 -14.7106 13.6091 3.8024 -7.4071 6.5997 -0.0000 0.0000 0.0000 -92.6578 3.1270 19.2549 12.1936 -20.0943 -2.1683 -0.0000 -0.0000 2.9916 18.2547 20.5053 6.5908 -7.1250 0.0000 -0.0000 -10.3639 51.1848 -1.5936 -0.0000 0.0000 0.0000 87.0290 -0.6757 16.0945 -12.5415 20.6117 -2.2893 0.0000 -0.0000 -7.5223 -23.8272 11.5046 -5.0336 7.1250 -0.0000 -0.0000 2.3226 -17.4421 1.5209
